REM DIRINDEX 1\2,1\3\5,1\3\6,1\4\7,1\4\8
REM DIRNAME folder01,folder02,folder03,folder04,folder05,folder06,folder07,folder08
TITLE ""
FILE "EG_E1.5_10.mp3" MP3
  TRACK 01 AUDIO
    TITLE "0:"
    INDEX 01 00:00:00
  TRACK 02 AUDIO
    TITLE "2:cjc139_0319"
    INDEX 01 00:00:17
  TRACK 03 AUDIO
    TITLE "0:"
    INDEX 01 00:03:08
  TRACK 04 AUDIO
    TITLE "2:cjc139_0320"
    INDEX 01 00:04:31
  TRACK 05 AUDIO
    TITLE "0:"
    INDEX 01 00:07:02
  TRACK 06 AUDIO
    TITLE "2:cjc139_0321"
    INDEX 01 00:08:24
  TRACK 07 AUDIO
    TITLE "0:"
    INDEX 01 00:11:05
  TRACK 08 AUDIO
    TITLE "2:cjc139_0322"
    INDEX 01 00:12:28
  TRACK 09 AUDIO
    TITLE "0:"
    INDEX 01 00:14:43
  TRACK 10 AUDIO
    TITLE "2:cjc139_0323"
    INDEX 01 00:15:66
  TRACK 11 AUDIO
    TITLE "0:"
    INDEX 01 00:18:37
  TRACK 12 AUDIO
    TITLE "2:cjc139_0324"
    INDEX 01 00:19:60
  TRACK 13 AUDIO
    TITLE "0:"
    INDEX 01 00:22:46
  TRACK 14 AUDIO
    TITLE "2:cjc139_0325"
    INDEX 01 00:23:69
  TRACK 15 AUDIO
    TITLE "0:"
    INDEX 01 00:26:22
  TRACK 16 AUDIO
    TITLE "2:cjc139_0326"
    INDEX 01 00:27:47
  TRACK 17 AUDIO
    TITLE "0:"
    INDEX 01 00:30:05
  TRACK 18 AUDIO
    TITLE "2:cjc139_0327"
    INDEX 01 00:31:27
  TRACK 19 AUDIO
    TITLE "0:"
    INDEX 01 00:33:62
  TRACK 20 AUDIO
    TITLE "2:cjc139_0328"
    INDEX 01 00:35:10
  TRACK 21 AUDIO
    TITLE "0:"
    INDEX 01 00:37:32
  TRACK 22 AUDIO
    TITLE "2:cjc139_0329"
    INDEX 01 00:38:53
  TRACK 23 AUDIO
    TITLE "0:"
    INDEX 01 00:41:40
  TRACK 24 AUDIO
    TITLE "2:cjc139_0330"
    INDEX 01 00:42:63
  TRACK 25 AUDIO
    TITLE "0:"
    INDEX 01 00:45:06
  TRACK 26 AUDIO
    TITLE "2:cjc139_0331"
    INDEX 01 00:46:29
  TRACK 27 AUDIO
    TITLE "0:"
    INDEX 01 00:48:71
  TRACK 28 AUDIO
    TITLE "2:cjc139_0332"
    INDEX 01 00:50:19
  TRACK 29 AUDIO
    TITLE "0:"
    INDEX 01 00:52:71
  TRACK 30 AUDIO
    TITLE "2:cjc139_0333"
    INDEX 01 00:54:19
  TRACK 31 AUDIO
    TITLE "0:"
    INDEX 01 00:56:71
  TRACK 32 AUDIO
    TITLE "2:cjc139_0334"
    INDEX 01 00:58:17
  TRACK 33 AUDIO
    TITLE "0:"
    INDEX 01 01:01:01
  TRACK 34 AUDIO
    TITLE "2:cjc139_0335"
    INDEX 01 01:02:22
  TRACK 35 AUDIO
    TITLE "0:"
    INDEX 01 01:04:64
  TRACK 36 AUDIO
    TITLE "2:cjc139_0336"
    INDEX 01 01:06:12
  TRACK 37 AUDIO
    TITLE "0:"
    INDEX 01 01:08:70
  TRACK 38 AUDIO
    TITLE "2:cjc139_0337"
    INDEX 01 01:10:20
  TRACK 39 AUDIO
    TITLE "0:"
    INDEX 01 01:12:42
  TRACK 40 AUDIO
    TITLE "2:cjc139_0338"
    INDEX 01 01:13:61
  TRACK 41 AUDIO
    TITLE "0:"
    INDEX 01 01:16:67
  TRACK 42 AUDIO
    TITLE "2:cjc139_0339"
    INDEX 01 01:18:15
  TRACK 43 AUDIO
    TITLE "0:"
    INDEX 01 01:21:37
  TRACK 44 AUDIO
    TITLE "2:cjc139_0340"
    INDEX 01 01:22:56
  TRACK 45 AUDIO
    TITLE "0:"
    INDEX 01 01:25:57
  TRACK 46 AUDIO
    TITLE "2:cjc139_0341"
    INDEX 01 01:27:03
  TRACK 47 AUDIO
    TITLE "0:"
    INDEX 01 01:30:26
  TRACK 48 AUDIO
    TITLE "2:cjc139_0342"
    INDEX 01 01:31:47
  TRACK 49 AUDIO
    TITLE "0:"
    INDEX 01 01:35:61
  TRACK 50 AUDIO
    TITLE "2:cjc139_0343"
    INDEX 01 01:37:07
  TRACK 51 AUDIO
    TITLE "0:"
    INDEX 01 01:41:09
  TRACK 52 AUDIO
    TITLE "2:cjc139_0344"
    INDEX 01 01:42:31
  TRACK 53 AUDIO
    TITLE "0:"
    INDEX 01 01:46:45
  TRACK 54 AUDIO
    TITLE "2:cjc139_0345"
    INDEX 01 01:47:64
  TRACK 55 AUDIO
    TITLE "0:"
    INDEX 01 01:51:17
  TRACK 56 AUDIO
    TITLE "2:cjc139_0346"
    INDEX 01 01:52:36
  TRACK 57 AUDIO
    TITLE "0:"
    INDEX 01 01:54:46
  TRACK 58 AUDIO
    TITLE "2:cjc139_0347"
    INDEX 01 01:55:67
  TRACK 59 AUDIO
    TITLE "0:"
    INDEX 01 01:58:66
  TRACK 60 AUDIO
    TITLE "2:cjc139_0348"
    INDEX 01 02:00:12
  TRACK 61 AUDIO
    TITLE "0:"
    INDEX 01 02:03:04
  TRACK 62 AUDIO
    TITLE "2:cjc139_0349"
    INDEX 01 02:04:29
  TRACK 63 AUDIO
    TITLE "0:"
    INDEX 01 02:08:01
  TRACK 64 AUDIO
    TITLE "2:cjc139_0350"
    INDEX 01 02:09:22
  TRACK 65 AUDIO
    TITLE "0:"
    INDEX 01 02:12:05
  TRACK 66 AUDIO
    TITLE "2:cjc139_0351"
    INDEX 01 02:13:26
  TRACK 67 AUDIO
    TITLE "0:"
    INDEX 01 02:15:66
  TRACK 68 AUDIO
    TITLE "2:cjc139_0352"
    INDEX 01 02:17:14
  TRACK 69 AUDIO
    TITLE "0:"
    INDEX 01 02:20:65
  TRACK 70 AUDIO
    TITLE "2:cjc139_0353"
    INDEX 01 02:22:11
  TRACK 71 AUDIO
    TITLE "0:"
    INDEX 01 02:25:37
  TRACK 72 AUDIO
    TITLE "2:cjc139_0354"
    INDEX 01 02:26:60
  TRACK 73 AUDIO
    TITLE "0:"
    INDEX 01 02:29:17
  TRACK 74 AUDIO
    TITLE "2:cjc139_0355"
    INDEX 01 02:30:40
  TRACK 75 AUDIO
    TITLE "0:"
    INDEX 01 02:33:46
  TRACK 76 AUDIO
    TITLE "2:cjc139_0356"
    INDEX 01 02:34:67
  TRACK 77 AUDIO
    TITLE "0:"
    INDEX 01 02:37:60
  TRACK 78 AUDIO
    TITLE "2:cjc139_0357"
    INDEX 01 02:39:06
  TRACK 79 AUDIO
    TITLE "0:"
    INDEX 01 02:42:20
  TRACK 80 AUDIO
    TITLE "2:cjc139_0358"
    INDEX 01 02:43:41
  TRACK 81 AUDIO
    TITLE "0:"
    INDEX 01 02:46:37
  TRACK 82 AUDIO
    TITLE "2:cjc139_0359"
    INDEX 01 02:47:62
  TRACK 83 AUDIO
    TITLE "0:"
    INDEX 01 02:51:27
  TRACK 84 AUDIO
    TITLE "2:cjc139_0360"
    INDEX 01 02:52:50
  TRACK 85 AUDIO
    TITLE "0:"
    INDEX 01 02:56:24
  TRACK 86 AUDIO
    TITLE "2:cjc139_0361"
    INDEX 01 02:57:45
  TRACK 87 AUDIO
    TITLE "0:"
    INDEX 01 03:00:71
  TRACK 88 AUDIO
    TITLE "2:cjc139_0362"
    INDEX 01 03:02:17
  TRACK 89 AUDIO
    TITLE "0:"
    INDEX 01 03:05:01
  TRACK 90 AUDIO
    TITLE "2:cjc139_0363"
    INDEX 01 03:06:22
  TRACK 91 AUDIO
    TITLE "0:"
    INDEX 01 03:09:52
  TRACK 92 AUDIO
    TITLE "2:cjc139_0364"
    INDEX 01 03:10:73
  TRACK 93 AUDIO
    TITLE "0:"
    INDEX 01 03:13:28
  TRACK 94 AUDIO
    TITLE "2:cjc139_0365"
    INDEX 01 03:14:51
  TRACK 95 AUDIO
    TITLE "0:"
    INDEX 01 03:17:61
  TRACK 96 AUDIO
    TITLE "2:cjc139_0366"
    INDEX 01 03:19:09
  TRACK 97 AUDIO
    TITLE "0:"
    INDEX 01 03:22:51
  TRACK 98 AUDIO
    TITLE "2:cjc139_0367"
    INDEX 01 03:23:72
  TRACK 99 AUDIO
    TITLE "0:"
    INDEX 01 03:27:01
  TRACK 100 AUDIO
    TITLE "2:cjc139_0368"
    INDEX 01 03:28:22
  TRACK 101 AUDIO
    TITLE "0:"
    INDEX 01 03:32:37
  TRACK 102 AUDIO
    TITLE "2:cjc139_0369"
    INDEX 01 03:33:62
  TRACK 103 AUDIO
    TITLE "0:"
    INDEX 01 03:37:25
  TRACK 104 AUDIO
    TITLE "2:cjc139_0370"
    INDEX 01 03:38:48
  TRACK 105 AUDIO
    TITLE "0:"
    INDEX 01 03:42:10
  TRACK 106 AUDIO
    TITLE "2:cjc139_0371"
    INDEX 01 03:43:31
  TRACK 107 AUDIO
    TITLE "0:"
    INDEX 01 03:46:32
  TRACK 108 AUDIO
    TITLE "2:cjc139_0372"
    INDEX 01 03:47:55
  TRACK 109 AUDIO
    TITLE "0:"
    INDEX 01 03:51:31
  TRACK 110 AUDIO
    TITLE "2:cjc139_0373"
    INDEX 01 03:52:52
  TRACK 111 AUDIO
    TITLE "0:"
    INDEX 01 03:56:01
  TRACK 112 AUDIO
    TITLE "2:cjc139_0374"
    INDEX 01 03:57:22
  TRACK 113 AUDIO
    TITLE "0:"
    INDEX 01 03:59:72
  TRACK 114 AUDIO
    TITLE "2:cjc139_0375"
    INDEX 01 04:01:16
  TRACK 115 AUDIO
    TITLE "0:"
    INDEX 01 04:03:26
  TRACK 116 AUDIO
    TITLE "2:cjc139_0376"
    INDEX 01 04:04:47
  TRACK 117 AUDIO
    TITLE "0:"
    INDEX 01 04:07:46
  TRACK 118 AUDIO
    TITLE "2:cjc139_0377"
    INDEX 01 04:08:67
  TRACK 119 AUDIO
    TITLE "0:"
    INDEX 01 04:12:08
  TRACK 120 AUDIO
    TITLE "2:cjc139_0378"
    INDEX 01 04:13:31
  TRACK 121 AUDIO
    TITLE "0:"
    INDEX 01 04:16:62
  TRACK 122 AUDIO
    TITLE "2:cjc139_0379"
    INDEX 01 04:18:10
  TRACK 123 AUDIO
    TITLE "0:"
    INDEX 01 04:21:22
  TRACK 124 AUDIO
    TITLE "2:cjc139_0380"
    INDEX 01 04:22:45
  TRACK 125 AUDIO
    TITLE "0:"
    INDEX 01 04:26:41
